<svg version="1.2" xmlns="http://www.w3.org/2000/svg" viewBox="0 0 125 126" width="125" height="126">
	<title>MiniProgramStudio</title>
	<defs>
		<filter x="-50%" y="-50%" width="200%" height="200%" id="f1" ><feDropShadow dx="15.089357666781664" dy="17.358320345123758" stdDeviation="25.416666666666668" flood-color="#626262" flood-opacity=".2"/></filter>
		<filter x="-50%" y="-50%" width="200%" height="200%" id="f2" ><feDropShadow dx="15.089357666781664" dy="17.358320345123758" stdDeviation="25.416666666666668" flood-color="#626262" flood-opacity=".2"/></filter>
		<linearGradient id="g1" x2="1" gradientUnits="userSpaceOnUse" gradientTransform="matrix(0,91.312,-91.312,0,63,17.344)">
			<stop offset="0" stop-color="#053161"/>
			<stop offset="1" stop-color="#021632"/>
		</linearGradient>
		<linearGradient id="g2" x2="1" gradientUnits="userSpaceOnUse" gradientTransform="matrix(0,91.312,-91.312,0,63,17.344)">
			<stop offset="0" stop-color="#58769e"/>
			<stop offset="1" stop-color="#112e56"/>
		</linearGradient>
	</defs>
	<style>
		.s0 { filter: url(#f1);fill: #000000 } 
		.s1 { filter: url(#f2);fill: #ffffff } 
		.s2 { fill: url(#g1);stroke: url(#g2);stroke-width: 4.7 } 
		.s3 { fill: #00b7ff } 
		.s4 { fill: #006fff } 
	</style>
	<g>
		<g>
			<path id="b" fill-rule="evenodd" class="s0" d="m29 5h68c13.3 0 24 10.7 24 24v68c0 13.3-10.7 24-24 24h-68c-13.3 0-24-10.7-24-24v-68c0-13.3 10.7-24 24-24z"/>
			<path id="b" fill-rule="evenodd" class="s1" d="m29 5h68c13.3 0 24 10.7 24 24v68c0 13.3-10.7 24-24 24h-68c-13.3 0-24-10.7-24-24v-68c0-13.3 10.7-24 24-24z"/>
		</g>
		<g>
			<path fill-rule="evenodd" class="s2" d="m63 17.3c25.2 0 45.7 20.5 45.7 45.7 0 25.2-20.5 45.7-45.7 45.7-25.2 0-45.7-20.5-45.7-45.7 0-25.2 20.5-45.7 45.7-45.7z"/>
			<g>
				<path class="s3" d="m71.6 69.6l9.1 15.7q-0.2 0.1-0.4 0.2-0.3 0.1-0.5 0.2-0.2 0-0.4 0.1-0.3 0-0.5 0h-0.1-7.3c-0.6 0-1.1-0.3-1.4-0.7l-3.5-6.2c0 0 5-9.3 5-9.3zm-17-29.3c0.6 0 1.1 0.3 1.4 0.8l3.5 6.2-5 9.3-9.1-15.8q0.2-0.1 0.4-0.2 0.2-0.1 0.5-0.1 0.2-0.1 0.4-0.1 0.2-0.1 0.5-0.1h0.1z"/>
				<path class="s4" d="m45.4 40.8l5 8.5-7.5 12.8q-0.1 0.2-0.2 0.4 0 0.3-0.1 0.5 0 0.3 0.1 0.6 0.1 0.2 0.2 0.4v0.1l7.5 12.7-5 8.5q-0.2-0.1-0.3-0.2-0.2-0.1-0.3-0.2-0.2-0.1-0.3-0.3-0.1-0.1-0.2-0.3l-11.4-19.4q-0.2-0.5-0.3-0.9-0.2-0.5-0.2-0.9 0-0.5 0.2-0.9 0.1-0.5 0.3-0.9v-0.1l11.2-19.1q0.1-0.2 0.2-0.4 0.2-0.1 0.4-0.3 0.1-0.2 0.3-0.3 0.2-0.2 0.4-0.3zm35.2 0q0.5 0.2 0.9 0.7l11.9 20.4q0.1 0.3 0.1 0.7 0.1 0.3 0 0.7 0 0.3-0.1 0.7-0.1 0.3-0.3 0.6v0.1l-10.2 17.7-1 1.8q-0.5 0.7-1.2 1.1l-5.1-8.7 7.5-12.5c0.3-0.6 0.3-1.4 0-2l-7.5-12.8z"/>
				<path class="s3" d="m78.8 40.3q1 0 1.8 0.5l-23.5 44.2q-0.1 0.2-0.3 0.4-0.1 0.1-0.3 0.2-0.2 0.1-0.4 0.2-0.2 0-0.4 0h-8.4c-0.7 0-1.3-0.2-1.9-0.5l23.5-44.2q0.1-0.2 0.3-0.3 0.1-0.2 0.3-0.3 0.2-0.1 0.4-0.1 0.2-0.1 0.4-0.1c0 0 8.5 0 8.5 0z"/>
			</g>
		</g>
	</g>
</svg>