<svg width="233" height="52" viewBox="0 0 233 52" fill="none" xmlns="http://www.w3.org/2000/svg">
<path d="M36.9099 1.96994L36.1499 5.39994H20.6299V47.2399H16.8799V5.39994H0.669922L1.42992 1.96994H36.9099Z" fill="white"/>
<path d="M77.9209 1.96994L77.1609 5.39994H52.6208V22.2499H76.3409L75.5809 25.6799H52.6309V43.7999H77.9409L77.1808 47.2299H48.8809V1.96994H77.9409H77.9209Z" fill="white"/>
<path d="M117.41 32.7399H97.1304L91.7204 47.2399H87.9004L105.45 1.96994H109.39L126.88 47.2399H122.87L117.4 32.7399H117.41ZM98.3304 29.3699H116.13L107.23 5.90994L98.3304 29.3699Z" fill="white"/>
<path d="M157.591 33.4399L142.271 8.00994V47.2399H138.521V1.96994H142.651L159.251 29.6299L175.341 1.96994H179.541V47.2399H175.791V7.68994L160.591 33.4399H157.601H157.591Z" fill="white"/>
<path d="M206.371 42.03C204.781 41.65 203.521 40.91 202.591 39.8C201.661 38.7 201.021 37.14 200.681 35.13C200.341 33.12 200.171 30.48 200.171 27.21V21.93C200.171 18.62 200.341 15.96 200.681 13.95C201.021 11.94 201.651 10.38 202.591 9.27999C203.521 8.17999 204.781 7.44999 206.371 7.08999C207.961 6.72999 210.031 6.54999 212.571 6.54999C215.111 6.54999 217.181 6.73999 218.771 7.11999C220.361 7.49999 221.621 8.23999 222.551 9.34999C223.481 10.45 224.121 12.01 224.461 14.02C224.801 16.03 224.971 18.67 224.971 21.94V27.22C224.971 30.53 224.801 33.19 224.461 35.2C224.121 37.21 223.481 38.77 222.551 39.87C222.311 40.15 222.051 40.41 221.771 40.64L226.141 45C227.001 44.36 227.771 43.64 228.401 42.83C229.801 41.03 230.741 38.84 231.231 36.25C231.721 33.67 231.961 30.74 231.961 27.48V21.69C231.961 18.26 231.711 15.24 231.201 12.63C230.691 10.02 229.731 7.83999 228.311 6.07999C226.891 4.31999 224.921 2.99999 222.401 2.10999C219.881 1.21999 216.601 0.769989 212.581 0.769989C208.561 0.769989 205.151 1.24999 202.631 2.19999C200.111 3.14999 198.151 4.52999 196.751 6.32999C195.351 8.12999 194.411 10.33 193.921 12.91C193.431 15.5 193.191 18.42 193.191 21.69V27.48C193.191 30.91 193.441 33.93 193.951 36.54C194.461 39.15 195.421 41.33 196.841 43.09C198.261 44.85 200.231 46.17 202.751 47.06C205.271 47.95 208.551 48.4 212.571 48.4C213.891 48.4 215.111 48.35 216.271 48.25L210.621 42.57C208.951 42.49 207.531 42.32 206.371 42.04V42.03Z" fill="white"/>
<path d="M212.26 37.01H207.84L222.29 51.53H226.71L212.26 37.01Z" fill="url(#paint0_linear_3_14189)"/>
<path d="M226.14 45L221.78 40.63L218.15 37.01H216.73H213.99H212.26L226.71 51.53H228.52H231.26H232.68L226.14 45Z" fill="white"/>
<defs>
<linearGradient id="paint0_linear_3_14189" x1="207.84" y1="44.27" x2="226.71" y2="44.27" gradientUnits="userSpaceOnUse">
<stop offset="0.31" stop-color="#CFFF80"/>
<stop offset="0.79" stop-color="#006DB0"/>
</linearGradient>
</defs>
</svg>
